<svg width="10" height="11" viewBox="0 0 10 11" fill="none" xmlns="http://www.w3.org/2000/svg">
<path d="M4.71429 2.35714C4.71429 2.82334 4.57604 3.27907 4.31704 3.6667C4.05803 4.05433 3.68989 4.35645 3.25918 4.53486C2.82847 4.71327 2.35453 4.75994 1.89729 4.66899C1.44005 4.57804 1.02004 4.35355 0.690392 4.02389C0.36074 3.69424 0.136244 3.27424 0.0452929 2.817C-0.045658 2.35976 0.00102132 1.88581 0.179428 1.4551C0.357834 1.02439 0.659955 0.656256 1.04759 0.39725C1.43522 0.138244 1.89095 0 2.35714 0C2.9823 0 3.58185 0.248341 4.0239 0.690391C4.46595 1.13244 4.71429 1.73199 4.71429 2.35714ZM2.94643 5.5H1.76786C1.29899 5.5 0.849332 5.68626 0.517794 6.01779C0.186257 6.34933 1.08422e-06 6.79899 1.08422e-06 7.26786V11H4.71429V7.26786C4.71429 6.79899 4.52803 6.34933 4.19649 6.01779C3.86496 5.68626 3.41529 5.5 2.94643 5.5ZM7.85714 5.5V3.92857H7.07143V5.5H5.5V6.28571H7.07143V7.85714H7.85714V6.28571H9.42857V5.5H7.85714Z" fill="#525B67"/>
</svg>
