<svg width="17" height="17" viewBox="0 0 17 17" fill="none" xmlns="http://www.w3.org/2000/svg">
<path d="M8.32637 6.96584e-07C3.72603 -0.00185953 0 3.72231 0 8.31893C0 11.9538 2.33086 15.0436 5.57695 16.1784C6.01411 16.2881 5.94714 15.9775 5.94714 15.7654V14.3237C3.42281 14.6195 3.3205 12.949 3.15122 12.67C2.80894 12.0859 1.99974 11.9371 2.24157 11.658C2.81638 11.3623 3.40235 11.7324 4.08133 12.7351C4.57243 13.4624 5.53045 13.3397 6.01597 13.2188C6.122 12.7816 6.34895 12.391 6.66147 12.0877C4.04599 11.619 2.9559 10.0229 2.9559 8.12546C2.9559 7.20465 3.25911 6.35825 3.85439 5.67555C3.4749 4.55011 3.88973 3.58651 3.94554 3.44328C5.02633 3.34654 6.1499 4.21713 6.23733 4.28596C6.85121 4.1204 7.55251 4.03297 8.33753 4.03297C9.12626 4.03297 9.82943 4.12412 10.4489 4.29154C10.6591 4.13156 11.7008 3.38375 12.7053 3.4749C12.7593 3.61814 13.1648 4.55941 12.8076 5.66997C13.4104 6.35453 13.7173 7.20837 13.7173 8.13104C13.7173 10.0322 12.6198 11.6301 9.99685 12.0915C10.2215 12.3124 10.3999 12.5759 10.5216 12.8665C10.6433 13.1572 10.7058 13.4692 10.7056 13.7843V15.877C10.7205 16.0444 10.7056 16.21 10.9846 16.21C14.2791 15.0994 16.6509 11.9873 16.6509 8.32079C16.6509 3.72231 12.923 6.96584e-07 8.32637 6.96584e-07Z" fill="#525B67"/>
</svg>
