<svg width="9" height="10" viewBox="0 0 9 10" fill="none" xmlns="http://www.w3.org/2000/svg">
<path d="M0 0L0.773438 8.74922L4.29844 9.75L7.80938 8.74922L8.59805 0H0ZM7.15898 8.21016L4.29844 9.02578L1.425 8.21016L0.760547 0.696094H7.83633L7.15898 8.21016ZM1.59375 1.79297L1.61367 2.07773L1.87969 5.04844H4.29961V5.04727H5.62266L5.48906 6.43594L4.28906 6.76055V6.76289H4.27969L3.07969 6.43828L3.00352 5.58047H1.93711L2.06953 7.27617L4.27969 7.88555H4.29961V7.88086L6.49922 7.275L6.51914 7.08398L6.76758 4.2457L6.80508 3.96094H4.28906V3.96328H2.86992L2.77383 2.85938H6.9L6.91992 2.63086L6.97617 2.07773L6.99609 1.79297H4.28906H1.59375Z" fill="#525B67"/>
</svg>
