<svg width="11" height="9" viewBox="0 0 11 9" fill="none" xmlns="http://www.w3.org/2000/svg">
<path d="M4.125 0.187523H2.25V5.16794C2.25 6.40029 1.82737 6.74438 1.09191 6.74438C0.747258 6.74438 0.436875 6.68529 0.195422 6.60227L0 8.06025C0.344531 8.17889 0.873258 8.25 1.28688 8.25C2.97551 8.25 4.125 7.45615 4.125 5.18016V0.187523ZM8.21398 0C6.39891 0 5.25 1.0312 5.25 2.39423C5.25 3.56805 6.13479 4.30298 7.42127 4.77701C8.35174 5.10884 8.71952 5.40532 8.71952 5.8912C8.71952 6.42455 8.29439 6.76835 7.49027 6.76835C6.74348 6.76835 6.06553 6.51898 5.60604 6.27019V6.2697L5.25 7.75141C5.68685 8.00074 6.50252 8.24958 7.38673 8.24958C9.5122 8.24953 10.5 7.11164 10.5 5.77228C10.5 4.63439 9.86817 3.89963 8.5013 3.37784C7.49023 2.97492 7.06528 2.74983 7.06528 2.24013C7.06528 1.83701 7.43297 1.46977 8.19129 1.46977C8.93768 1.46977 9.45091 1.72071 9.75 1.87502L10.1982 0.375023C9.72949 0.169219 9.09816 0 8.21398 0Z" fill="#525B67"/>
</svg>
