<svg width="72" height="33" viewBox="0 0 72 33" fill="none" xmlns="http://www.w3.org/2000/svg">
<path d="M1.41 16V1.25H6.53C7.88333 1.25 8.91333 1.57 9.62 2.21C10.3267 2.85 10.68 3.82667 10.68 5.14C10.68 5.92667 10.53 6.59667 10.23 7.15C9.93667 7.69667 9.58 8.12 9.16 8.42C8.74667 8.72 8.36333 8.89 8.01 8.93C8.37 8.95667 8.72333 9.05667 9.07 9.23C9.42333 9.39667 9.71667 9.65667 9.95 10.01C10.1833 10.3633 10.3 10.8367 10.3 11.43C10.3 11.9767 10.3 12.5367 10.3 13.11C10.3 13.6767 10.3 14.2367 10.3 14.79C10.3 15.0767 10.3233 15.3333 10.37 15.56C10.4167 15.78 10.47 15.9267 10.53 16H8.81C8.76333 15.9133 8.71667 15.7633 8.67 15.55C8.62333 15.3367 8.6 15.0833 8.6 14.79C8.6 14.2767 8.6 13.7533 8.6 13.22C8.6 12.6867 8.6 12.16 8.6 11.64C8.6 10.9867 8.39333 10.5 7.98 10.18C7.56667 9.86 6.98333 9.7 6.23 9.7H2.6L3.08 9.05V16H1.41ZM3.08 8.91L2.6 8.2H6.25C6.74333 8.2 7.19 8.08 7.59 7.84C7.99667 7.59333 8.32 7.25333 8.56 6.82C8.80667 6.38 8.93 5.86667 8.93 5.28C8.93 4.36667 8.69 3.71667 8.21 3.33C7.73 2.94333 7.03667 2.75 6.13 2.75H2.56L3.08 2.01V8.91ZM12.6745 16L16.7345 1.21H19.3945L23.4245 16H21.6645L18.0545 2.32H18.0745L14.4345 16H12.6745ZM14.7745 12.09V10.59H21.3545V12.09H14.7745ZM29.133 8.53L29.173 7.21L35.073 16H33.143L28.103 8.54L28.983 8.65L26.983 11.27L27.163 10.16V16H25.453V1.25H27.163V9.36L26.823 9L32.843 1.25H34.713L29.133 8.53ZM38.1313 2.75L38.9013 1.78V8.44L38.4813 7.85H44.1413V9.35H38.4813L38.9013 8.76V15.47L38.1313 14.5H45.2513V16H37.1913V1.25H45.2513V2.75H38.1313ZM52.5302 16.2C51.5102 16.2 50.6368 16.04 49.9102 15.72C49.1902 15.3933 48.6368 14.9033 48.2502 14.25C47.8635 13.5967 47.6702 12.7833 47.6702 11.81C47.6702 11.6767 47.6702 11.5633 47.6702 11.47C47.6702 11.3767 47.6702 11.2633 47.6702 11.13H49.3802C49.3802 11.2567 49.3802 11.3633 49.3802 11.45C49.3802 11.5367 49.3802 11.6467 49.3802 11.78C49.3802 12.8 49.6468 13.5367 50.1802 13.99C50.7135 14.4367 51.4902 14.66 52.5102 14.66C53.5635 14.66 54.3602 14.48 54.9002 14.12C55.4402 13.76 55.7102 13.1767 55.7102 12.37C55.7102 11.8033 55.5535 11.3333 55.2402 10.96C54.9335 10.58 54.5068 10.26 53.9602 10C53.4135 9.73333 52.7768 9.49 52.0502 9.27C51.2302 9.01667 50.4968 8.69667 49.8502 8.31C49.2102 7.92333 48.7035 7.44667 48.3302 6.88C47.9635 6.30667 47.7802 5.61 47.7802 4.79C47.7802 3.99 47.9735 3.31333 48.3602 2.76C48.7535 2.20667 49.3002 1.78667 50.0002 1.5C50.7002 1.21333 51.5135 1.07 52.4402 1.07C53.4202 1.07 54.2702 1.22333 54.9902 1.53C55.7168 1.83 56.2768 2.29 56.6702 2.91C57.0702 3.52333 57.2702 4.29667 57.2702 5.23C57.2702 5.37667 57.2702 5.50333 57.2702 5.61C57.2702 5.71 57.2702 5.83333 57.2702 5.98H55.5602C55.5602 5.85333 55.5602 5.74 55.5602 5.64C55.5602 5.54 55.5602 5.42667 55.5602 5.3C55.5602 4.32667 55.2968 3.63667 54.7702 3.23C54.2435 2.81667 53.4768 2.61 52.4702 2.61C51.5035 2.61 50.7568 2.78 50.2302 3.12C49.7035 3.46 49.4402 4.01667 49.4402 4.79C49.4402 5.37 49.6002 5.85 49.9202 6.23C50.2468 6.60333 50.6902 6.92333 51.2502 7.19C51.8102 7.45 52.4502 7.7 53.1702 7.94C54.0435 8.22667 54.7935 8.55333 55.4202 8.92C56.0535 9.28 56.5368 9.73 56.8702 10.27C57.2102 10.81 57.3802 11.49 57.3802 12.31C57.3802 13.13 57.1835 13.83 56.7902 14.41C56.4035 14.99 55.8468 15.4333 55.1202 15.74C54.4002 16.0467 53.5368 16.2 52.5302 16.2ZM69.8184 1.25V16H68.1084V8.54L68.8784 9.39H60.7484L61.5184 8.54V16H59.8084V1.25H61.5184V8.79L60.7484 7.89H68.8784L68.1084 8.79V1.25H69.8184Z" fill="#F3DBC1"/>
<path d="M3.816 30.11C3.25867 30.11 2.80583 30 2.4575 29.78C2.10917 29.5563 1.85433 29.2465 1.693 28.8505C1.53167 28.4508 1.451 27.9852 1.451 27.4535C1.451 27.3985 1.451 27.3453 1.451 27.294C1.451 27.239 1.451 27.1858 1.451 27.1345H2.375C2.375 27.1675 2.375 27.2042 2.375 27.2445C2.375 27.2812 2.375 27.3197 2.375 27.36C2.375 27.734 2.42267 28.064 2.518 28.35C2.61333 28.636 2.7655 28.8597 2.9745 29.021C3.18717 29.1823 3.46767 29.263 3.816 29.263C4.16067 29.263 4.4375 29.1823 4.6465 29.021C4.8555 28.8597 5.00767 28.6305 5.103 28.3335C5.19833 28.0328 5.246 27.679 5.246 27.272V21.8875H6.181V27.393C6.181 27.7853 6.13883 28.1465 6.0545 28.4765C5.97017 28.8065 5.8345 29.0943 5.6475 29.34C5.46417 29.582 5.22217 29.7708 4.9215 29.9065C4.62083 30.0422 4.25233 30.11 3.816 30.11ZM10.0257 30.11C9.67367 30.11 9.34734 30.0733 9.04667 30C8.74967 29.923 8.48934 29.813 8.26567 29.67C8.04567 29.5233 7.87334 29.3437 7.74867 29.131C7.62767 28.9183 7.56717 28.6745 7.56717 28.3995C7.56717 28.3702 7.56717 28.3408 7.56717 28.3115C7.56717 28.2785 7.56717 28.251 7.56717 28.229H8.50767C8.50767 28.251 8.50767 28.2693 8.50767 28.284C8.50767 28.2987 8.50767 28.3207 8.50767 28.35C8.50767 28.647 8.64517 28.8743 8.92017 29.032C9.19517 29.186 9.57101 29.263 10.0477 29.263C10.341 29.263 10.6032 29.2337 10.8342 29.175C11.0652 29.1163 11.2467 29.0265 11.3787 28.9055C11.5143 28.7845 11.5822 28.6323 11.5822 28.449C11.5822 28.1447 11.4392 27.9283 11.1532 27.8C10.8708 27.668 10.4473 27.5543 9.88267 27.459C9.58567 27.4077 9.30334 27.3417 9.03567 27.261C8.76801 27.1767 8.52967 27.0685 8.32067 26.9365C8.11534 26.8045 7.95217 26.6413 7.83117 26.447C7.71384 26.249 7.65517 26.0125 7.65517 25.7375C7.65517 25.3818 7.75967 25.0812 7.96867 24.8355C8.18134 24.5862 8.46734 24.3973 8.82667 24.269C9.18601 24.137 9.58567 24.071 10.0257 24.071C10.451 24.071 10.8433 24.1388 11.2027 24.2745C11.562 24.4102 11.8498 24.6082 12.0662 24.8685C12.2862 25.1252 12.3962 25.4423 12.3962 25.82C12.3962 25.8347 12.3962 25.853 12.3962 25.875C12.3962 25.8933 12.3962 25.9117 12.3962 25.93H11.4612C11.4612 25.9117 11.4612 25.897 11.4612 25.886C11.4612 25.875 11.4612 25.8622 11.4612 25.8475C11.4612 25.6348 11.3933 25.4607 11.2577 25.325C11.122 25.1857 10.946 25.083 10.7297 25.017C10.5133 24.9473 10.2823 24.9125 10.0367 24.9125C9.80567 24.9125 9.57834 24.9382 9.35467 24.9895C9.13101 25.0372 8.94584 25.1178 8.79917 25.2315C8.65251 25.3452 8.57917 25.501 8.57917 25.699C8.57917 25.897 8.64701 26.0565 8.78267 26.1775C8.92201 26.2948 9.11634 26.392 9.36567 26.469C9.61867 26.5423 9.91567 26.6102 10.2567 26.6725C10.561 26.7275 10.8488 26.7972 11.1202 26.8815C11.3915 26.9622 11.6298 27.0667 11.8352 27.195C12.0442 27.3233 12.2073 27.4865 12.3247 27.6845C12.4457 27.8788 12.5062 28.1172 12.5062 28.3995C12.5062 28.6855 12.4402 28.9348 12.3082 29.1475C12.1798 29.3602 12.0002 29.538 11.7692 29.681C11.5418 29.824 11.2778 29.9303 10.9772 30C10.6802 30.0733 10.363 30.11 10.0257 30.11ZM16.6427 30V21.8875H18.6777C19.213 21.8875 19.6952 21.981 20.1242 22.168C20.5569 22.355 20.9254 22.6245 21.2297 22.9765C21.5377 23.3248 21.7742 23.7502 21.9392 24.2525C22.1042 24.7512 22.1867 25.314 22.1867 25.941C22.1867 26.568 22.1042 27.1327 21.9392 27.635C21.7742 28.1337 21.5377 28.559 21.2297 28.911C20.9254 29.263 20.5569 29.5325 20.1242 29.7195C19.6952 29.9065 19.213 30 18.6777 30H16.6427ZM17.5887 29.7085L17.1652 29.175H18.5677C19.0884 29.175 19.5485 29.0448 19.9482 28.7845C20.3515 28.5205 20.6669 28.1465 20.8942 27.6625C21.1215 27.1785 21.2352 26.6047 21.2352 25.941C21.2352 25.2737 21.1215 24.6998 20.8942 24.2195C20.6669 23.7355 20.3515 23.3633 19.9482 23.103C19.5485 22.8427 19.0884 22.7125 18.5677 22.7125H17.1652L17.5887 22.179V29.7085ZM23.8862 27.4535V26.6175H28.4017L28.2367 26.8925C28.2367 26.8705 28.2367 26.8503 28.2367 26.832C28.2367 26.81 28.2367 26.7898 28.2367 26.7715C28.2367 26.4342 28.1652 26.1262 28.0222 25.8475C27.8829 25.5652 27.6739 25.3397 27.3952 25.171C27.1165 25.0023 26.7719 24.918 26.3612 24.918C25.9469 24.918 25.582 25.006 25.2667 25.182C24.9514 25.358 24.7057 25.6073 24.5297 25.93C24.3537 26.249 24.2657 26.6303 24.2657 27.074C24.2657 27.525 24.35 27.9137 24.5187 28.24C24.691 28.5663 24.9349 28.8175 25.2502 28.9935C25.5655 29.1695 25.9395 29.2575 26.3722 29.2575C26.6802 29.2575 26.9479 29.2263 27.1752 29.164C27.4025 29.098 27.5895 29.0118 27.7362 28.9055C27.8865 28.7955 28.0002 28.6763 28.0772 28.548C28.1542 28.4197 28.2 28.2913 28.2147 28.163H29.1497C29.1314 28.3977 29.058 28.6305 28.9297 28.8615C28.8014 29.0925 28.6199 29.3033 28.3852 29.494C28.1505 29.681 27.8627 29.8313 27.5217 29.945C27.1807 30.0587 26.7884 30.1155 26.3447 30.1155C25.758 30.1155 25.241 29.9872 24.7937 29.7305C24.3464 29.4738 23.9944 29.1182 23.7377 28.6635C23.4847 28.2088 23.3582 27.6863 23.3582 27.096C23.3582 26.4983 23.4865 25.974 23.7432 25.523C23.9999 25.0683 24.3537 24.7127 24.8047 24.456C25.2557 24.1993 25.7709 24.071 26.3502 24.071C26.9405 24.071 27.452 24.1993 27.8847 24.456C28.3174 24.7127 28.651 25.0647 28.8857 25.512C29.1204 25.9557 29.2377 26.4617 29.2377 27.03C29.2377 27.0887 29.2359 27.1657 29.2322 27.261C29.2285 27.3563 29.223 27.4205 29.2157 27.4535H23.8862ZM35.1497 24.159L33.1917 30H31.9652L29.9632 24.159H30.9312L32.6527 29.505H32.5042L34.1817 24.159H35.1497ZM36.2934 27.4535V26.6175H40.8089L40.6439 26.8925C40.6439 26.8705 40.6439 26.8503 40.6439 26.832C40.6439 26.81 40.6439 26.7898 40.6439 26.7715C40.6439 26.4342 40.5724 26.1262 40.4294 25.8475C40.2901 25.5652 40.0811 25.3397 39.8024 25.171C39.5237 25.0023 39.1791 24.918 38.7684 24.918C38.3541 24.918 37.9892 25.006 37.6739 25.182C37.3586 25.358 37.1129 25.6073 36.9369 25.93C36.7609 26.249 36.6729 26.6303 36.6729 27.074C36.6729 27.525 36.7572 27.9137 36.9259 28.24C37.0982 28.5663 37.3421 28.8175 37.6574 28.9935C37.9727 29.1695 38.3467 29.2575 38.7794 29.2575C39.0874 29.2575 39.3551 29.2263 39.5824 29.164C39.8097 29.098 39.9967 29.0118 40.1434 28.9055C40.2937 28.7955 40.4074 28.6763 40.4844 28.548C40.5614 28.4197 40.6072 28.2913 40.6219 28.163H41.5569C41.5386 28.3977 41.4652 28.6305 41.3369 28.8615C41.2086 29.0925 41.0271 29.3033 40.7924 29.494C40.5577 29.681 40.2699 29.8313 39.9289 29.945C39.5879 30.0587 39.1956 30.1155 38.7519 30.1155C38.1652 30.1155 37.6482 29.9872 37.2009 29.7305C36.7536 29.4738 36.4016 29.1182 36.1449 28.6635C35.8919 28.2088 35.7654 27.6863 35.7654 27.096C35.7654 26.4983 35.8937 25.974 36.1504 25.523C36.4071 25.0683 36.7609 24.7127 37.2119 24.456C37.6629 24.1993 38.1781 24.071 38.7574 24.071C39.3477 24.071 39.8592 24.1993 40.2919 24.456C40.7246 24.7127 41.0582 25.0647 41.2929 25.512C41.5276 25.9557 41.6449 26.4617 41.6449 27.03C41.6449 27.0887 41.6431 27.1657 41.6394 27.261C41.6357 27.3563 41.6302 27.4205 41.6229 27.4535H36.2934ZM44.1087 21.4035V30H43.1847V21.4035H44.1087ZM48.5865 30.1045C47.9998 30.1045 47.481 29.9743 47.03 29.714C46.5827 29.45 46.2307 29.0907 45.974 28.636C45.721 28.1777 45.5945 27.657 45.5945 27.074C45.5945 26.491 45.721 25.974 45.974 25.523C46.2307 25.072 46.5827 24.7182 47.03 24.4615C47.481 24.2048 47.9998 24.0765 48.5865 24.0765C49.1732 24.0765 49.6902 24.2048 50.1375 24.4615C50.5885 24.7182 50.9405 25.072 51.1935 25.523C51.4502 25.974 51.5785 26.491 51.5785 27.074C51.5785 27.657 51.4502 28.1777 51.1935 28.636C50.9405 29.0907 50.5885 29.45 50.1375 29.714C49.6902 29.9743 49.1732 30.1045 48.5865 30.1045ZM48.5865 29.2465C48.9898 29.2465 49.3455 29.1567 49.6535 28.977C49.9615 28.7973 50.2017 28.5443 50.374 28.218C50.55 27.8917 50.638 27.5103 50.638 27.074C50.638 26.6377 50.55 26.26 50.374 25.941C50.2017 25.6183 49.9615 25.3708 49.6535 25.1985C49.3455 25.0225 48.9898 24.9345 48.5865 24.9345C48.1868 24.9345 47.8312 25.0225 47.5195 25.1985C47.2115 25.3708 46.9695 25.6183 46.7935 25.941C46.6212 26.26 46.535 26.6377 46.535 27.074C46.535 27.5103 46.6212 27.8917 46.7935 28.218C46.9695 28.5443 47.2115 28.7973 47.5195 28.977C47.8312 29.1567 48.1868 29.2465 48.5865 29.2465ZM53.0388 32.4035V24.159H53.9738V32.4035H53.0388ZM55.8933 30.11C55.4423 30.11 55.0206 30 54.6283 29.78C54.2359 29.5563 53.9169 29.2502 53.6713 28.8615C53.4293 28.4728 53.3083 28.0292 53.3083 27.5305C53.3083 27.5195 53.3083 27.5103 53.3083 27.503C53.3083 27.4957 53.3083 27.4865 53.3083 27.4755L53.9793 27.459C53.9793 27.4663 53.9793 27.4755 53.9793 27.4865C53.9793 27.4938 53.9793 27.5012 53.9793 27.5085C53.9793 27.8238 54.0618 28.1117 54.2268 28.372C54.3954 28.6323 54.6154 28.8395 54.8868 28.9935C55.1581 29.1475 55.4496 29.2245 55.7613 29.2245C56.2783 29.2245 56.7073 29.0485 57.0483 28.6965C57.3929 28.3408 57.5653 27.8 57.5653 27.074C57.5653 26.3443 57.3948 25.8053 57.0538 25.457C56.7128 25.105 56.2819 24.929 55.7613 24.929C55.4496 24.929 55.1581 25.006 54.8868 25.16C54.6154 25.3103 54.3954 25.5138 54.2268 25.7705C54.0618 26.0272 53.9793 26.315 53.9793 26.634L53.3083 26.612C53.3083 26.1097 53.4293 25.6678 53.6713 25.2865C53.9169 24.9052 54.2359 24.6082 54.6283 24.3955C55.0206 24.1792 55.4423 24.071 55.8933 24.071C56.3663 24.071 56.8026 24.1883 57.2023 24.423C57.6019 24.654 57.9228 24.9932 58.1648 25.4405C58.4068 25.8878 58.5278 26.4323 58.5278 27.074C58.5278 27.7267 58.4086 28.2803 58.1703 28.735C57.9319 29.186 57.6129 29.5288 57.2133 29.7635C56.8136 29.9945 56.3736 30.11 55.8933 30.11ZM60.2915 27.4535V26.6175H64.807L64.642 26.8925C64.642 26.8705 64.642 26.8503 64.642 26.832C64.642 26.81 64.642 26.7898 64.642 26.7715C64.642 26.4342 64.5705 26.1262 64.4275 25.8475C64.2881 25.5652 64.0791 25.3397 63.8005 25.171C63.5218 25.0023 63.1771 24.918 62.7665 24.918C62.3521 24.918 61.9873 25.006 61.672 25.182C61.3566 25.358 61.111 25.6073 60.935 25.93C60.759 26.249 60.671 26.6303 60.671 27.074C60.671 27.525 60.7553 27.9137 60.924 28.24C61.0963 28.5663 61.3401 28.8175 61.6555 28.9935C61.9708 29.1695 62.3448 29.2575 62.7775 29.2575C63.0855 29.2575 63.3531 29.2263 63.5805 29.164C63.8078 29.098 63.9948 29.0118 64.1415 28.9055C64.2918 28.7955 64.4055 28.6763 64.4825 28.548C64.5595 28.4197 64.6053 28.2913 64.62 28.163H65.555C65.5366 28.3977 65.4633 28.6305 65.335 28.8615C65.2066 29.0925 65.0251 29.3033 64.7905 29.494C64.5558 29.681 64.268 29.8313 63.927 29.945C63.586 30.0587 63.1936 30.1155 62.75 30.1155C62.1633 30.1155 61.6463 29.9872 61.199 29.7305C60.7516 29.4738 60.3996 29.1182 60.143 28.6635C59.89 28.2088 59.7635 27.6863 59.7635 27.096C59.7635 26.4983 59.8918 25.974 60.1485 25.523C60.4051 25.0683 60.759 24.7127 61.21 24.456C61.661 24.1993 62.1761 24.071 62.7555 24.071C63.3458 24.071 63.8573 24.1993 64.29 24.456C64.7226 24.7127 65.0563 25.0647 65.291 25.512C65.5256 25.9557 65.643 26.4617 65.643 27.03C65.643 27.0887 65.6411 27.1657 65.6375 27.261C65.6338 27.3563 65.6283 27.4205 65.621 27.4535H60.2915ZM67.1003 30V24.159H68.0353V25.952L67.7273 25.842C67.7493 25.6257 67.8043 25.413 67.8923 25.204C67.9803 24.9913 68.1013 24.8007 68.2553 24.632C68.413 24.4597 68.6091 24.324 68.8438 24.225C69.0785 24.1223 69.3535 24.071 69.6688 24.071C69.9035 24.071 70.0941 24.0912 70.2408 24.1315C70.3911 24.1682 70.4846 24.1975 70.5213 24.2195L70.2793 25.138C70.2426 25.1123 70.1675 25.0793 70.0538 25.039C69.9438 24.9987 69.7861 24.9785 69.5808 24.9785C69.2765 24.9785 69.0235 25.0335 68.8218 25.1435C68.6238 25.2535 68.4661 25.4002 68.3488 25.5835C68.2351 25.7632 68.1545 25.9593 68.1068 26.172C68.0591 26.3847 68.0353 26.5955 68.0353 26.8045V30H67.1003Z" fill="#525B67"/>
</svg>
