<svg width="74" height="16" viewBox="0 0 74 16" fill="none" xmlns="http://www.w3.org/2000/svg">
<path d="M0.41 15V0.25H5.53C6.88333 0.25 7.91333 0.57 8.62 1.21C9.32667 1.85 9.68 2.82667 9.68 4.14C9.68 4.92667 9.53 5.59667 9.23 6.15C8.93667 6.69667 8.58 7.12 8.16 7.42C7.74667 7.72 7.36333 7.89 7.01 7.93C7.37 7.95667 7.72333 8.05667 8.07 8.23C8.42333 8.39667 8.71667 8.65667 8.95 9.01C9.18333 9.36333 9.3 9.83667 9.3 10.43C9.3 10.9767 9.3 11.5367 9.3 12.11C9.3 12.6767 9.3 13.2367 9.3 13.79C9.3 14.0767 9.32333 14.3333 9.37 14.56C9.41667 14.78 9.47 14.9267 9.53 15H7.81C7.76333 14.9133 7.71667 14.7633 7.67 14.55C7.62333 14.3367 7.6 14.0833 7.6 13.79C7.6 13.2767 7.6 12.7533 7.6 12.22C7.6 11.6867 7.6 11.16 7.6 10.64C7.6 9.98667 7.39333 9.5 6.98 9.18C6.56667 8.86 5.98333 8.7 5.23 8.7H1.6L2.08 8.05V15H0.41ZM2.08 7.91L1.6 7.2H5.25C5.74333 7.2 6.19 7.08 6.59 6.84C6.99667 6.59333 7.32 6.25333 7.56 5.82C7.80667 5.38 7.93 4.86667 7.93 4.28C7.93 3.36667 7.69 2.71667 7.21 2.33C6.73 1.94333 6.03667 1.75 5.13 1.75H1.56L2.08 1.01V7.91ZM11.6745 15L15.7345 0.209999H18.3945L22.4245 15H20.6645L17.0545 1.32H17.0745L13.4345 15H11.6745ZM13.7745 11.09V9.59H20.3545V11.09H13.7745ZM28.133 7.53L28.173 6.21L34.073 15H32.143L27.103 7.54L27.983 7.65L25.983 10.27L26.163 9.16V15H24.453V0.25H26.163V8.36L25.823 8L31.843 0.25H33.713L28.133 7.53ZM37.1313 1.75L37.9013 0.779999V7.44L37.4813 6.85H43.1413V8.35H37.4813L37.9013 7.76V14.47L37.1313 13.5H44.2513V15H36.1913V0.25H44.2513V1.75H37.1313ZM51.5302 15.2C50.5102 15.2 49.6368 15.04 48.9102 14.72C48.1902 14.3933 47.6368 13.9033 47.2502 13.25C46.8635 12.5967 46.6702 11.7833 46.6702 10.81C46.6702 10.6767 46.6702 10.5633 46.6702 10.47C46.6702 10.3767 46.6702 10.2633 46.6702 10.13H48.3802C48.3802 10.2567 48.3802 10.3633 48.3802 10.45C48.3802 10.5367 48.3802 10.6467 48.3802 10.78C48.3802 11.8 48.6468 12.5367 49.1802 12.99C49.7135 13.4367 50.4902 13.66 51.5102 13.66C52.5635 13.66 53.3602 13.48 53.9002 13.12C54.4402 12.76 54.7102 12.1767 54.7102 11.37C54.7102 10.8033 54.5535 10.3333 54.2402 9.96C53.9335 9.58 53.5068 9.26 52.9602 9C52.4135 8.73333 51.7768 8.49 51.0502 8.27C50.2302 8.01667 49.4968 7.69667 48.8502 7.31C48.2102 6.92333 47.7035 6.44667 47.3302 5.88C46.9635 5.30667 46.7802 4.61 46.7802 3.79C46.7802 2.99 46.9735 2.31333 47.3602 1.76C47.7535 1.20667 48.3002 0.786666 49.0002 0.5C49.7002 0.213333 50.5135 0.0699997 51.4402 0.0699997C52.4202 0.0699997 53.2702 0.223333 53.9902 0.53C54.7168 0.829999 55.2768 1.29 55.6702 1.91C56.0702 2.52333 56.2702 3.29667 56.2702 4.23C56.2702 4.37667 56.2702 4.50333 56.2702 4.61C56.2702 4.71 56.2702 4.83333 56.2702 4.98H54.5602C54.5602 4.85333 54.5602 4.74 54.5602 4.64C54.5602 4.54 54.5602 4.42667 54.5602 4.3C54.5602 3.32667 54.2968 2.63667 53.7702 2.23C53.2435 1.81667 52.4768 1.61 51.4702 1.61C50.5035 1.61 49.7568 1.78 49.2302 2.12C48.7035 2.46 48.4402 3.01667 48.4402 3.79C48.4402 4.37 48.6002 4.85 48.9202 5.23C49.2468 5.60333 49.6902 5.92333 50.2502 6.19C50.8102 6.45 51.4502 6.7 52.1702 6.94C53.0435 7.22667 53.7935 7.55333 54.4202 7.92C55.0535 8.28 55.5368 8.73 55.8702 9.27C56.2102 9.81 56.3802 10.49 56.3802 11.31C56.3802 12.13 56.1835 12.83 55.7902 13.41C55.4035 13.99 54.8468 14.4333 54.1202 14.74C53.4002 15.0467 52.5368 15.2 51.5302 15.2ZM68.8184 0.25V15H67.1084V7.54L67.8784 8.39H59.7484L60.5184 7.54V15H58.8084V0.25H60.5184V7.79L59.7484 6.89H67.8784L67.1084 7.79V0.25H68.8184ZM72.8005 15.26C72.4738 15.26 72.1971 15.15 71.9705 14.93C71.7505 14.7033 71.6405 14.4267 71.6405 14.1C71.6405 13.78 71.7505 13.5067 71.9705 13.28C72.1971 13.0533 72.4738 12.94 72.8005 12.94C73.1205 12.94 73.3938 13.0533 73.6205 13.28C73.8471 13.5067 73.9605 13.78 73.9605 14.1C73.9605 14.4267 73.8471 14.7033 73.6205 14.93C73.3938 15.15 73.1205 15.26 72.8005 15.26Z" fill="#C9D1D9"/>
</svg>
