<svg width="12" height="10" viewBox="0 0 12 10" fill="none" xmlns="http://www.w3.org/2000/svg">
<path d="M11.5988 4.9013L7.41264 9.08747C7.35409 9.14608 7.27947 9.18601 7.19823 9.20219C7.11698 9.21837 7.03276 9.21008 6.95623 9.17836C6.87969 9.14665 6.81429 9.09295 6.7683 9.02404C6.7223 8.95514 6.69778 8.87414 6.69785 8.7913V6.71025C3.70997 6.87979 1.66136 8.81746 1.08628 9.43126C0.99598 9.5277 0.877563 9.5932 0.747882 9.61844C0.6182 9.64367 0.483862 9.62737 0.363986 9.57183C0.24411 9.5163 0.144803 9.42437 0.0801983 9.30913C0.0155939 9.19389 -0.0110165 9.06121 0.00415437 8.92997C0.198288 7.24189 1.12291 5.61818 2.60796 4.35814C3.84131 3.3116 5.34048 2.64756 6.69785 2.5314V0.418947C6.69778 0.336105 6.7223 0.255105 6.7683 0.186203C6.81429 0.117301 6.87969 0.0635953 6.95623 0.031884C7.03276 0.000172677 7.11698 -0.00811789 7.19823 0.00806185C7.27947 0.0242416 7.35409 0.0641641 7.41264 0.122775L11.5988 4.30895C11.6377 4.34783 11.6686 4.394 11.6897 4.44482C11.7107 4.49564 11.7216 4.55011 11.7216 4.60512C11.7216 4.66014 11.7107 4.71461 11.6897 4.76543C11.6686 4.81625 11.6377 4.86242 11.5988 4.9013Z" fill="#394150"/>
</svg>
