<svg width="21" height="17" viewBox="0 0 21 17" fill="none" xmlns="http://www.w3.org/2000/svg">
<path d="M20.8271 2.00988C20.0612 2.34028 19.2277 2.57806 18.3692 2.67067C19.2605 2.14113 19.928 1.30455 20.2464 0.317886C19.41 0.815446 18.4937 1.16434 17.5382 1.3491C17.1389 0.922166 16.6559 0.582048 16.1193 0.349942C15.5827 0.117837 15.0041 -0.00128097 14.4195 1.03883e-05C12.0542 1.03883e-05 10.152 1.91728 10.152 4.27006C10.152 4.60045 10.192 4.93084 10.2571 5.24871C6.71543 5.06349 3.5567 3.37149 1.45672 0.780933C1.07408 1.43449 0.873566 2.17865 0.876035 2.93598C0.876035 4.41773 1.62942 5.72427 2.77828 6.49268C2.10124 6.46602 1.44006 6.27992 0.848502 5.94954V6.0021C0.848502 8.07705 2.31524 9.79659 4.27004 10.1921C3.90301 10.2874 3.52543 10.3362 3.14622 10.3372C2.86839 10.3372 2.60558 10.3097 2.34026 10.2721C2.8809 11.9641 4.45526 13.1931 6.32998 13.2331C4.86325 14.382 3.02608 15.0578 1.03122 15.0578C0.673296 15.0578 0.342905 15.0453 0 15.0052C1.89224 16.2192 4.13739 16.92 6.55524 16.92C14.4045 16.92 18.6996 10.4173 18.6996 4.77315C18.6996 4.58793 18.6996 4.40271 18.6871 4.21749C19.5181 3.60927 20.2464 2.85588 20.8271 2.00988Z" fill="#525B67"/>
</svg>
